<svg id="Layer_1" data-name="Layer 1" xmlns="http://www.w3.org/2000/svg" viewBox="0 0 1031.76 317.52"><defs><style>.cls-1{fill:#cfe3eb;}.cls-2{fill:#6f7070;}.cls-3{fill:#a9cad8;}.cls-4{fill:#fff;}</style></defs><title>Trinity Logo_Horizontal_Full Color</title><circle class="cls-1" cx="161.83" cy="158.76" r="122.78"/><path class="cls-2" d="M362.94,90H334.59V75.44h72.52V90H378.77v74.81H362.94Z"/><path class="cls-2" d="M446.05,75.44h39.83a43.53,43.53,0,0,1,14.94,2.37,29.9,29.9,0,0,1,10.85,6.57,26,26,0,0,1,5.49,8.56,28.85,28.85,0,0,1,1.92,10.72v.26a28.94,28.94,0,0,1-1.6,9.89,26.07,26.07,0,0,1-4.4,7.79,26.82,26.82,0,0,1-6.71,5.75,33.26,33.26,0,0,1-8.62,3.63l24.14,33.83H503.37l-22-31.15H461.63v31.15H446.05Zm38.63,44.31c5.63,0,10.12-1.35,13.44-4a13.37,13.37,0,0,0,5-11v-.25q0-7.3-4.87-11.09c-3.25-2.53-7.81-3.78-13.7-3.78H461.63v30.13Z"/><path class="cls-2" d="M561.59,75.44h15.57v89.37H561.59Z"/><path class="cls-2" d="M623.5,75.44H638l47.77,61.8V75.44h15.58v89.37H688.26l-49.18-63.58v63.58H623.5Z"/><path class="cls-2" d="M747.59,75.44h15.58v89.37H747.59Z"/><path class="cls-2" d="M831.47,90H803.13V75.44h72.51V90H847.3v74.81H831.47Z"/><path class="cls-2" d="M940.88,129.58,905.39,75.44H923.9l25,39.58L974.2,75.44h18l-35.49,53.75v35.62H940.88Z"/><path class="cls-2" d="M357.65,224.89v7.37a14.57,14.57,0,0,1-1.31,5.83A10,10,0,0,1,353.2,242a9.39,9.39,0,0,1-6.05,1.82A9.65,9.65,0,0,1,341,242a9.9,9.9,0,0,1-3.06-3.94,14.74,14.74,0,0,1-1.31-5.83V200.69a14.68,14.68,0,0,1,1.31-5.76,9.23,9.23,0,0,1,9.19-5.83,9.81,9.81,0,0,1,6.05,1.82,10.23,10.23,0,0,1,3.14,4,14.51,14.51,0,0,1,1.31,5.76v7.36h-7.36v-7.36a4.58,4.58,0,0,0-1.17-3.35,2.65,2.65,0,0,0-4.23,1.38,7.68,7.68,0,0,0-.36,2v31.57a5,5,0,0,0,1.23,3.35,2.08,2.08,0,0,0,1.53.58,2.53,2.53,0,0,0,2.7-2,5.07,5.07,0,0,0,.3-2v-7.37Z"/><path class="cls-2" d="M388.73,232.26a14.41,14.41,0,0,1-1.32,5.83,9.92,9.92,0,0,1-3.13,3.94,9.4,9.4,0,0,1-6,1.82A9.65,9.65,0,0,1,372.1,242a9.9,9.9,0,0,1-3.06-3.94,14.74,14.74,0,0,1-1.31-5.83V200.69a14.68,14.68,0,0,1,1.31-5.76,9.23,9.23,0,0,1,9.19-5.83,9.83,9.83,0,0,1,6,1.82,10.11,10.11,0,0,1,3.13,4,14.34,14.34,0,0,1,1.32,5.76Zm-7.88-31.57a4.84,4.84,0,0,0-1-3.35,2.24,2.24,0,0,0-1.6-.59,2.43,2.43,0,0,0-2.33,2,5.55,5.55,0,0,0-.29,2v31.57a4.63,4.63,0,0,0,1.09,3.35,2,2,0,0,0,1.53.58,2.3,2.3,0,0,0,2.33-2,5.09,5.09,0,0,0,.29-2Z"/><path class="cls-2" d="M420.83,189.68v42.58a14.57,14.57,0,0,1-1.31,5.83,10,10,0,0,1-3.14,3.94,9.39,9.39,0,0,1-6.05,1.82A9.63,9.63,0,0,1,404.2,242a9.81,9.81,0,0,1-3.06-3.94,14.57,14.57,0,0,1-1.31-5.83V189.68h7.87v42.58a4.63,4.63,0,0,0,1.1,3.35,2,2,0,0,0,1.53.58,2.3,2.3,0,0,0,2.33-2,5.07,5.07,0,0,0,.3-2V189.68Z"/><path class="cls-2" d="M440.75,215.34l-.66-2.48h-.44v30.41h-7.22V189.68h7l7.66,27.92.66,2.48h.43v-30.4h7.22v53.59h-7Z"/><path class="cls-2" d="M480.14,204a17.6,17.6,0,0,0-.58-5.25c-.52-1.45-1.32-2.48-2.56-2.48-2,.08-2.69,2.19-2.69,5.32a12,12,0,0,0,2,5.76c1.16,2,2.69,4.16,4.23,6.42a81.8,81.8,0,0,1,5,8.17,18.31,18.31,0,0,1,2.34,8.38c0,3.58-.58,6.93-2.26,9.41s-4.37,4.08-8.68,4.08c-5,0-7.87-1.89-9.47-4.81s-2-6.78-2-10.79l7.73-.73a20.35,20.35,0,0,0,.66,6.2c.51,1.75,1.39,2.91,3.06,2.91,2.33,0,3.21-2.47,3.21-5.91a13.44,13.44,0,0,0-2-5.9c-.66-1-1.31-2.12-2-3.21-1.53-2.18-3.21-4.66-5-7.36a30.56,30.56,0,0,1-3.86-8.31,14.31,14.31,0,0,1-.66-4.31,15,15,0,0,1,2.33-8.45,9.56,9.56,0,0,1,7.95-4.08c4.74-.08,7.51,1.89,9,4.73a20.94,20.94,0,0,1,2,9.48Z"/><path class="cls-2" d="M498,189.68h18v8.09H505.83v14.08h7.29v8.6h-7.29v14.73H516v8.09H498Z"/><path class="cls-2" d="M526.18,189.68h7.88V236h10.42v7.29h-18.3Z"/><path class="cls-2" d="M553.54,189.68h7.87v53.59h-7.87Z"/><path class="cls-2" d="M581.4,215.34l-.66-2.48h-.44v30.41h-7.21V189.68h7l7.66,27.92.66,2.48h.44v-30.4h7.22v53.59h-7Z"/><path class="cls-2" d="M620.35,208.92v-8.23a4.84,4.84,0,0,0-1-3.35,2.24,2.24,0,0,0-1.6-.59,2.43,2.43,0,0,0-2.33,2,5.55,5.55,0,0,0-.29,2v32.23a4.63,4.63,0,0,0,1.09,3.35,2.09,2.09,0,0,0,1.53.58,2.3,2.3,0,0,0,2.33-2,5,5,0,0,0,.29-2v-9.71h-3.13v-6.63h11v26.69h-4.67l-.94-2.55a7.86,7.86,0,0,1-6.13,3.13,8,8,0,0,1-5.62-1.82,9.67,9.67,0,0,1-2.76-3.94,14.64,14.64,0,0,1-.88-5.83V200.69a14.68,14.68,0,0,1,1.31-5.76,9.23,9.23,0,0,1,9.19-5.83,9.81,9.81,0,0,1,6,1.82,10.23,10.23,0,0,1,3.14,4,14.51,14.51,0,0,1,1.31,5.76v8.23Z"/><path class="cls-2" d="M710.22,224.89v7.37a14.57,14.57,0,0,1-1.31,5.83,9.86,9.86,0,0,1-3.14,3.94,9.37,9.37,0,0,1-6,1.82A9.63,9.63,0,0,1,693.6,242a9.84,9.84,0,0,1-3.07-3.94,14.74,14.74,0,0,1-1.31-5.83V200.69a14.68,14.68,0,0,1,1.31-5.76,9.26,9.26,0,0,1,9.2-5.83,9.8,9.8,0,0,1,6,1.82,10.05,10.05,0,0,1,3.14,4,14.51,14.51,0,0,1,1.31,5.76v7.36h-7.36v-7.36a4.58,4.58,0,0,0-1.17-3.35,2.56,2.56,0,0,0-1.82-.59,2.59,2.59,0,0,0-2.41,2,7.68,7.68,0,0,0-.36,2v31.57a5,5,0,0,0,1.24,3.35,2,2,0,0,0,1.53.58,2.54,2.54,0,0,0,2.7-2,5.09,5.09,0,0,0,.29-2v-7.37Z"/><path class="cls-2" d="M741.74,232.26a14.57,14.57,0,0,1-1.31,5.83,9.94,9.94,0,0,1-3.14,3.94,9.37,9.37,0,0,1-6,1.82,9.62,9.62,0,0,1-6.12-1.82,9.84,9.84,0,0,1-3.07-3.94,14.74,14.74,0,0,1-1.31-5.83V200.69a14.68,14.68,0,0,1,1.31-5.76,9.26,9.26,0,0,1,9.19-5.83,9.79,9.79,0,0,1,6,1.82,10.14,10.14,0,0,1,3.14,4,14.51,14.51,0,0,1,1.31,5.76Zm-7.87-31.57a4.84,4.84,0,0,0-1-3.35,2.25,2.25,0,0,0-1.61-.59,2.43,2.43,0,0,0-2.33,2,5.55,5.55,0,0,0-.29,2v31.57a4.63,4.63,0,0,0,1.09,3.35,2.07,2.07,0,0,0,1.53.58,2.3,2.3,0,0,0,2.34-2,5.09,5.09,0,0,0,.29-2Z"/><path class="cls-2" d="M761.66,215.34l-.65-2.48h-.44v30.41h-7.22V189.68h7L768,217.6l.65,2.48h.44v-30.4h7.22v53.59h-7Z"/><path class="cls-2" d="M801.5,204a17.6,17.6,0,0,0-.59-5.25c-.51-1.45-1.31-2.48-2.54-2.48-2,.08-2.7,2.19-2.7,5.32a12,12,0,0,0,2,5.76c1.16,2,2.69,4.16,4.22,6.42a80.12,80.12,0,0,1,5,8.17,18.31,18.31,0,0,1,2.34,8.38c0,3.58-.59,6.93-2.26,9.41s-4.38,4.08-8.68,4.08c-5,0-7.87-1.89-9.48-4.81s-2-6.78-2-10.79l7.73-.73a20,20,0,0,0,.66,6.2c.51,1.75,1.39,2.91,3.06,2.91,2.33,0,3.21-2.47,3.21-5.91a13.44,13.44,0,0,0-2-5.9c-.66-1-1.31-2.12-2-3.21-1.53-2.18-3.21-4.66-5-7.36a30.9,30.9,0,0,1-3.87-8.31,14.62,14.62,0,0,1-.65-4.31,14.92,14.92,0,0,1,2.33-8.45,9.56,9.56,0,0,1,8-4.08c4.74-.08,7.51,1.89,9,4.73a20.94,20.94,0,0,1,2,9.48Z"/><path class="cls-2" d="M840.67,189.68v42.58a14.57,14.57,0,0,1-1.31,5.83,10,10,0,0,1-3.14,3.94,9.42,9.42,0,0,1-6.06,1.82A9.62,9.62,0,0,1,824,242a9.81,9.81,0,0,1-3.06-3.94,14.57,14.57,0,0,1-1.31-5.83V189.68h7.87v42.58a4.63,4.63,0,0,0,1.1,3.35,2,2,0,0,0,1.52.58,2.3,2.3,0,0,0,2.34-2,5.09,5.09,0,0,0,.29-2V189.68Z"/><path class="cls-2" d="M852.71,189.68h7.88V236H871v7.29H852.71Z"/><path class="cls-2" d="M877.74,197.77v-8.09h22.75v8.09h-7.44v45.5h-7.87v-45.5Z"/><path class="cls-2" d="M909.84,189.68h7.88v53.59h-7.88Z"/><path class="cls-2" d="M938.13,215.34l-.65-2.48H937v30.41h-7.22V189.68h7l7.66,27.92.65,2.48h.44v-30.4h7.22v53.59h-7Z"/><path class="cls-2" d="M977.53,208.92v-8.23a4.84,4.84,0,0,0-1-3.35,2.24,2.24,0,0,0-1.6-.59,2.44,2.44,0,0,0-2.34,2,5.55,5.55,0,0,0-.29,2v32.23a4.63,4.63,0,0,0,1.09,3.35,2.13,2.13,0,0,0,1.54.58,2.3,2.3,0,0,0,2.33-2,5,5,0,0,0,.29-2v-9.71H974.4v-6.63h11v26.69h-4.66l-1-2.55a7.84,7.84,0,0,1-6.12,3.13,8,8,0,0,1-5.62-1.82,9.69,9.69,0,0,1-2.77-3.94,14.64,14.64,0,0,1-.88-5.83V200.69a14.51,14.51,0,0,1,1.32-5.76,9.23,9.23,0,0,1,9.19-5.83,9.83,9.83,0,0,1,6.05,1.82,10.11,10.11,0,0,1,3.13,4,14.51,14.51,0,0,1,1.31,5.76v8.23Z"/><path class="cls-3" d="M642.68,214h13.2V201.7H662V214h13.2v6.13H662v12.32h-6.13V220.16h-13.2Z"/><rect class="cls-2" x="193.49" y="66.13" width="39.53" height="6.82" transform="translate(46.4 219.45) rotate(-60)"/><path class="cls-2" d="M161.9,36h-.13c-1.12,0-2.23,0-3.35.05V64.84a13,13,0,0,1,6.82.22V36C164.13,36,163,36,161.9,36Z"/><path class="cls-2" d="M266.37,94.41,241.08,109a13.08,13.08,0,0,1,3.34,5.94l25.36-14.61Z"/><path class="cls-2" d="M117,88.09l5.91-3.41-19.57-33.9q-3,1.63-5.9,3.43Z"/><path class="cls-2" d="M158.42,252.69v28.8c1.11,0,2.22.05,3.34.05h.15c1.12,0,2.23,0,3.33-.05v-29a13,13,0,0,1-3.81.59A13.32,13.32,0,0,1,158.42,252.69Z"/><path class="cls-2" d="M53.8,100.37l24.7,14.27A13.12,13.12,0,0,1,82,108.78L57.21,94.48Q55.43,97.38,53.8,100.37Z"/><polygon class="cls-4" points="91.35 118.16 91.35 199.36 161.68 239.97 232 199.36 232 118.16 161.97 158.59 91.35 118.16"/><path class="cls-2" d="M161.67,243.37a3.46,3.46,0,0,1-1.7-.45L89.65,202.31a3.39,3.39,0,0,1-1.71-2.95v-81.2a3.41,3.41,0,0,1,5.1-3L162,154.66l68.33-39.45a3.41,3.41,0,0,1,5.11,3v81.2a3.39,3.39,0,0,1-1.71,2.95l-70.32,40.61A3.47,3.47,0,0,1,161.67,243.37Zm-66.91-46L161.67,236l66.92-38.64V124.06l-64.92,37.48a3.39,3.39,0,0,1-3.39,0L94.76,124Z"/><path class="cls-4" d="M151,98.68a26.13,26.13,0,0,0,10.81,21.13,26,26,0,0,0,0-42.26A26.16,26.16,0,0,0,151,98.68Z"/><path class="cls-4" d="M170.49,114.72A29.22,29.22,0,0,0,162.34,140a29.1,29.1,0,0,0,33.38-33.37A29.18,29.18,0,0,0,170.49,114.72Z"/><path class="cls-4" d="M153.17,114.72A29.16,29.16,0,0,1,161.32,140a29.1,29.1,0,0,1-33.38-33.37A29.17,29.17,0,0,1,153.17,114.72Z"/><path class="cls-4" d="M179.73,138.25a29.2,29.2,0,0,0-17.9,19.57,29.11,29.11,0,0,0,44.23-16.5A29.16,29.16,0,0,0,179.73,138.25Z"/><path class="cls-4" d="M143.94,138.25a29.16,29.16,0,0,1,17.89,19.57,29.1,29.1,0,0,1-44.22-16.5A29.16,29.16,0,0,1,143.94,138.25Z"/><path class="cls-4" d="M179.72,164.55a29.21,29.21,0,0,0-17.89,19.57,29.11,29.11,0,0,0,44.23-16.5A29.18,29.18,0,0,0,179.72,164.55Z"/><path class="cls-4" d="M143.94,164.55a29.16,29.16,0,0,1,17.89,19.57,29.1,29.1,0,0,1-44.22-16.5A29.16,29.16,0,0,1,143.94,164.55Z"/><path class="cls-2" d="M207.93,164.77a33.2,33.2,0,0,0-11.08-4.71,33,33,0,0,0,12.49-17.81,3.42,3.42,0,0,0-1.4-3.78A32.78,32.78,0,0,0,191.1,133a32.85,32.85,0,0,0,8-27,3.42,3.42,0,0,0-2.85-2.84,33,33,0,0,0-21.47,4A29.38,29.38,0,0,0,163.85,74.8a3.44,3.44,0,0,0-4,0,29.37,29.37,0,0,0-10.93,32.41,33,33,0,0,0-21.47-4,3.42,3.42,0,0,0-2.85,2.84,32.82,32.82,0,0,0,8,27,32.73,32.73,0,0,0-16.83,5.45,3.43,3.43,0,0,0-1.41,3.78,33,33,0,0,0,12.49,17.81,33.2,33.2,0,0,0-11.08,4.71,3.42,3.42,0,0,0-1.41,3.77,32.6,32.6,0,0,0,31.36,23.91,32.22,32.22,0,0,0,12.74-2.66V240h6.82v-50.2a33,33,0,0,0,12.85,2.63,32.37,32.37,0,0,0,11.27-2,32.81,32.81,0,0,0,20-21.84A3.42,3.42,0,0,0,207.93,164.77Zm-21-7.08a25.52,25.52,0,0,1-21-1.4,25.64,25.64,0,0,1,36-13.44A25.51,25.51,0,0,1,187,157.69Zm5.65-48a25.65,25.65,0,0,1-27.19,27.19,25.64,25.64,0,0,1,27.19-27.19ZM161.83,82a22.6,22.6,0,0,1,0,33.47,22.62,22.62,0,0,1,0-33.47ZM131,109.67a25.66,25.66,0,0,1,27.2,27.19A25.66,25.66,0,0,1,131,109.67Zm-9.32,33.18a25.65,25.65,0,0,1,36,13.44,25.66,25.66,0,0,1-36-13.44Zm15,41.14a25.56,25.56,0,0,1-15-14.84,25.65,25.65,0,0,1,36,13.44A25.57,25.57,0,0,1,136.69,184Zm16-18.62a32.92,32.92,0,0,0,5.74-1.88v7.14A31.87,31.87,0,0,0,152.68,165.37Zm12.56-1.9a33.19,33.19,0,0,0,5.8,1.86,32.4,32.4,0,0,0-5.8,5.29ZM187,184a25.56,25.56,0,0,1-21-1.4,25.64,25.64,0,0,1,36-13.44A25.51,25.51,0,0,1,187,184Z"/></svg>