<svg id="Layer_1" data-name="Layer 1" xmlns="http://www.w3.org/2000/svg" viewBox="0 0 729.36 523.72"><defs><style>.cls-1{fill:#cfe3eb;}.cls-2{fill:#6f7070;}.cls-3{fill:#a9cad8;}.cls-4{fill:#fff;}</style></defs><title>Trinity Logo_Vertical_Full Color</title><circle class="cls-1" cx="364.53" cy="153.15" r="122.78"/><path class="cls-2" d="M64.22,333.85H35.88V319.3h72.51v14.55H80.05v74.81H64.22Z"/><path class="cls-2" d="M147.33,319.3h39.84a43.76,43.76,0,0,1,14.93,2.36A29.9,29.9,0,0,1,213,328.23a25.73,25.73,0,0,1,5.49,8.56,28.88,28.88,0,0,1,1.92,10.72v.26a28.7,28.7,0,0,1-1.6,9.89,26.07,26.07,0,0,1-4.4,7.79,26.61,26.61,0,0,1-6.71,5.75,33.11,33.11,0,0,1-8.62,3.63l24.14,33.83H204.66l-22-31.15H162.91v31.15H147.33ZM186,363.6q8.46,0,13.44-4a13.35,13.35,0,0,0,5-11v-.26q0-7.3-4.87-11.09t-13.7-3.78H162.91V363.6Z"/><path class="cls-2" d="M262.87,319.3h15.57v89.36H262.87Z"/><path class="cls-2" d="M324.78,319.3h14.53l47.78,61.79V319.3h15.57v89.36H389.54l-49.18-63.57v63.57H324.78Z"/><path class="cls-2" d="M448.88,319.3h15.57v89.36H448.88Z"/><path class="cls-2" d="M532.75,333.85H504.41V319.3h72.51v14.55H548.59v74.81H532.75Z"/><path class="cls-2" d="M642.16,373.43,606.67,319.3h18.51l25,39.57,25.28-39.57h18L658,373v35.62H642.16Z"/><path class="cls-2" d="M58.93,468.75v7.36a14.57,14.57,0,0,1-1.31,5.83,10,10,0,0,1-3.14,3.94,9.37,9.37,0,0,1-6,1.82,9.62,9.62,0,0,1-6.12-1.82,9.84,9.84,0,0,1-3.07-3.94,14.74,14.74,0,0,1-1.31-5.83V444.54a14.68,14.68,0,0,1,1.31-5.76A9.26,9.26,0,0,1,48.43,433a9.79,9.79,0,0,1,6,1.82,10.23,10.23,0,0,1,3.14,4,14.51,14.51,0,0,1,1.31,5.76v7.36H51.57v-7.36a4.58,4.58,0,0,0-1.17-3.35,2.65,2.65,0,0,0-4.23,1.38,7.68,7.68,0,0,0-.36,2v31.57A5,5,0,0,0,47,479.46a2.09,2.09,0,0,0,1.54.58,2.54,2.54,0,0,0,2.7-2,5.09,5.09,0,0,0,.29-2v-7.36Z"/><path class="cls-2" d="M90,476.11a14.57,14.57,0,0,1-1.31,5.83,10,10,0,0,1-3.14,3.94,9.39,9.39,0,0,1-6,1.82,9.62,9.62,0,0,1-6.12-1.82,9.84,9.84,0,0,1-3.07-3.94A14.74,14.74,0,0,1,69,476.11V444.54a14.68,14.68,0,0,1,1.31-5.76A9.26,9.26,0,0,1,79.51,433a9.81,9.81,0,0,1,6,1.82,10.23,10.23,0,0,1,3.14,4A14.51,14.51,0,0,1,90,444.54Zm-7.87-31.57a4.84,4.84,0,0,0-1-3.35,2.27,2.27,0,0,0-1.61-.59,2.43,2.43,0,0,0-2.33,2,5.55,5.55,0,0,0-.29,2v31.57A4.63,4.63,0,0,0,78,479.46a2,2,0,0,0,1.53.58,2.3,2.3,0,0,0,2.34-2,5.09,5.09,0,0,0,.29-2Z"/><path class="cls-2" d="M122.11,433.53v42.58a14.57,14.57,0,0,1-1.31,5.83,10,10,0,0,1-3.14,3.94,9.39,9.39,0,0,1-6,1.82,9.58,9.58,0,0,1-6.12-1.82,9.84,9.84,0,0,1-3.07-3.94,14.57,14.57,0,0,1-1.31-5.83V433.53H109v42.58a4.63,4.63,0,0,0,1.1,3.35,2,2,0,0,0,1.53.58,2.29,2.29,0,0,0,2.33-2,5.07,5.07,0,0,0,.3-2V433.53Z"/><path class="cls-2" d="M142,459.19l-.65-2.48h-.44v30.41h-7.22V433.53h7l7.66,27.93.65,2.47h.44v-30.4h7.22v53.59h-7Z"/><path class="cls-2" d="M181.43,447.89a17.6,17.6,0,0,0-.59-5.25c-.51-1.45-1.31-2.47-2.55-2.47-2,.07-2.7,2.18-2.7,5.32a12,12,0,0,0,2,5.75c1.16,2.05,2.7,4.16,4.23,6.42a83.84,83.84,0,0,1,5,8.17,18.33,18.33,0,0,1,2.33,8.38c0,3.58-.58,6.93-2.26,9.41s-4.37,4.08-8.68,4.08c-5,0-7.87-1.89-9.47-4.81s-2-6.78-2-10.79l7.73-.73a20.37,20.37,0,0,0,.65,6.2c.51,1.75,1.39,2.91,3.06,2.91,2.34,0,3.22-2.47,3.22-5.9a13.26,13.26,0,0,0-2.05-5.9c-.66-1-1.31-2.12-2-3.22-1.53-2.18-3.21-4.66-5-7.36a30.56,30.56,0,0,1-3.86-8.31,14.24,14.24,0,0,1-.66-4.3,15,15,0,0,1,2.33-8.46,9.58,9.58,0,0,1,7.95-4.08c4.74-.07,7.51,1.89,9,4.73a20.82,20.82,0,0,1,2,9.49Z"/><path class="cls-2" d="M199.23,433.53h18v8.09H207.11V455.7h7.29v8.6h-7.29V479h10.13v8.09h-18Z"/><path class="cls-2" d="M227.46,433.53h7.88v46.3h10.42v7.29h-18.3Z"/><path class="cls-2" d="M254.82,433.53h7.88v53.59h-7.88Z"/><path class="cls-2" d="M282.68,459.19l-.65-2.48h-.44v30.41h-7.22V433.53h7L289,461.46l.65,2.47h.44v-30.4h7.22v53.59h-7Z"/><path class="cls-2" d="M321.64,452.78v-8.24a4.84,4.84,0,0,0-1-3.35,2.27,2.27,0,0,0-1.61-.59,2.43,2.43,0,0,0-2.33,2,5.55,5.55,0,0,0-.29,2v32.23a4.63,4.63,0,0,0,1.09,3.35,2.09,2.09,0,0,0,1.53.58,2.3,2.3,0,0,0,2.34-2,5,5,0,0,0,.29-2v-9.7H318.5v-6.64h11v26.69h-4.67l-.94-2.55a7.84,7.84,0,0,1-6.13,3.13,8,8,0,0,1-5.61-1.82,9.6,9.6,0,0,1-2.77-3.94,14.64,14.64,0,0,1-.88-5.83V444.54a14.68,14.68,0,0,1,1.31-5.76A9.26,9.26,0,0,1,319,433a9.79,9.79,0,0,1,6.05,1.82,10.23,10.23,0,0,1,3.14,4,14.51,14.51,0,0,1,1.31,5.76v8.24Z"/><path class="cls-2" d="M411.5,468.75v7.36a14.57,14.57,0,0,1-1.31,5.83,9.92,9.92,0,0,1-3.13,3.94A9.4,9.4,0,0,1,401,487.7a9.63,9.63,0,0,1-6.13-1.82,9.9,9.9,0,0,1-3.06-3.94,14.57,14.57,0,0,1-1.31-5.83V444.54a14.51,14.51,0,0,1,1.31-5.76A9.23,9.23,0,0,1,401,433a9.83,9.83,0,0,1,6.05,1.82,10.11,10.11,0,0,1,3.13,4,14.51,14.51,0,0,1,1.31,5.76v7.36h-7.36v-7.36a4.58,4.58,0,0,0-1.17-3.35,2.64,2.64,0,0,0-4.22,1.38,8.12,8.12,0,0,0-.37,2v31.57a5,5,0,0,0,1.24,3.35,2.08,2.08,0,0,0,1.53.58,2.54,2.54,0,0,0,2.7-2,5.09,5.09,0,0,0,.29-2v-7.36Z"/><path class="cls-2" d="M443,476.11a14.57,14.57,0,0,1-1.31,5.83,9.92,9.92,0,0,1-3.13,3.94,9.4,9.4,0,0,1-6.05,1.82,9.63,9.63,0,0,1-6.13-1.82,9.9,9.9,0,0,1-3.06-3.94,14.74,14.74,0,0,1-1.32-5.83V444.54a14.68,14.68,0,0,1,1.32-5.76,9.23,9.23,0,0,1,9.19-5.83,9.83,9.83,0,0,1,6.05,1.82,10.11,10.11,0,0,1,3.13,4,14.51,14.51,0,0,1,1.31,5.76Zm-7.87-31.57a4.84,4.84,0,0,0-1-3.35,2.24,2.24,0,0,0-1.6-.59,2.44,2.44,0,0,0-2.34,2,5.55,5.55,0,0,0-.29,2v31.57a4.59,4.59,0,0,0,1.1,3.35,2,2,0,0,0,1.53.58,2.3,2.3,0,0,0,2.33-2,5.09,5.09,0,0,0,.29-2Z"/><path class="cls-2" d="M463,459.19l-.66-2.48h-.43v30.41h-7.22V433.53h7l7.65,27.93.66,2.47h.44v-30.4h7.22v53.59h-7Z"/><path class="cls-2" d="M502.78,447.89a17.6,17.6,0,0,0-.58-5.25c-.51-1.45-1.32-2.47-2.55-2.47-2,.07-2.7,2.18-2.7,5.32a12,12,0,0,0,2,5.75c1.16,2.05,2.69,4.16,4.23,6.42a81.8,81.8,0,0,1,5,8.17,18.34,18.34,0,0,1,2.34,8.38c0,3.58-.58,6.93-2.26,9.41s-4.37,4.08-8.68,4.08c-5,0-7.87-1.89-9.47-4.81s-2-6.78-2-10.79l7.73-.73a20.37,20.37,0,0,0,.65,6.2c.51,1.75,1.39,2.91,3.06,2.91,2.34,0,3.21-2.47,3.21-5.9a13.24,13.24,0,0,0-2-5.9c-.66-1-1.31-2.12-2-3.22-1.53-2.18-3.21-4.66-5-7.36a30.56,30.56,0,0,1-3.86-8.31,14.24,14.24,0,0,1-.66-4.3,15,15,0,0,1,2.33-8.46A9.56,9.56,0,0,1,499.5,433c4.74-.07,7.51,1.89,9,4.73a21,21,0,0,1,2,9.49Z"/><path class="cls-2" d="M542,433.53v42.58a14.57,14.57,0,0,1-1.31,5.83,10,10,0,0,1-3.14,3.94,9.39,9.39,0,0,1-6,1.82,9.58,9.58,0,0,1-6.12-1.82,9.84,9.84,0,0,1-3.07-3.94,14.57,14.57,0,0,1-1.31-5.83V433.53h7.87v42.58a4.63,4.63,0,0,0,1.1,3.35,2,2,0,0,0,1.53.58,2.29,2.29,0,0,0,2.33-2,5.07,5.07,0,0,0,.3-2V433.53Z"/><path class="cls-2" d="M554,433.53h7.87v46.3H572.3v7.29H554Z"/><path class="cls-2" d="M579,441.62v-8.09h22.74v8.09h-7.43v45.5h-7.88v-45.5Z"/><path class="cls-2" d="M611.12,433.53H619v53.59h-7.88Z"/><path class="cls-2" d="M639.42,459.19l-.66-2.48h-.44v30.41H631.1V433.53h7l7.66,27.93.66,2.47h.43v-30.4h7.22v53.59h-7Z"/><path class="cls-2" d="M678.81,452.78v-8.24a4.84,4.84,0,0,0-1-3.35,2.24,2.24,0,0,0-1.6-.59,2.43,2.43,0,0,0-2.33,2,5.55,5.55,0,0,0-.29,2v32.23a4.63,4.63,0,0,0,1.09,3.35,2.09,2.09,0,0,0,1.53.58,2.3,2.3,0,0,0,2.33-2,5,5,0,0,0,.29-2v-9.7h-3.13v-6.64h11v26.69H682l-.94-2.55A7.87,7.87,0,0,1,675,487.7a8,8,0,0,1-5.62-1.82,9.67,9.67,0,0,1-2.76-3.94,14.64,14.64,0,0,1-.88-5.83V444.54a14.51,14.51,0,0,1,1.31-5.76,9.23,9.23,0,0,1,9.19-5.83,9.83,9.83,0,0,1,6,1.82,10.11,10.11,0,0,1,3.13,4,14.68,14.68,0,0,1,1.32,5.76v8.24Z"/><path class="cls-3" d="M344,457.88h13.19V445.56h6.13v12.32h13.2V464h-13.2v12.32h-6.13V464H344Z"/><rect class="cls-2" x="396.18" y="60.52" width="39.53" height="6.82" transform="translate(152.61 392.18) rotate(-60)"/><path class="cls-2" d="M364.59,30.36h-.13c-1.12,0-2.23,0-3.34.05V59.22a13.05,13.05,0,0,1,6.82.23v-29C366.83,30.38,365.71,30.36,364.59,30.36Z"/><path class="cls-2" d="M469.06,88.8l-25.29,14.58a13,13,0,0,1,3.34,5.94l25.36-14.61Z"/><path class="cls-2" d="M319.7,82.48l5.9-3.41L306,45.17c-2,1.08-4,2.23-5.9,3.42Z"/><path class="cls-2" d="M361.12,247.07v28.81c1.1,0,2.21.05,3.33.05h.15c1.12,0,2.23,0,3.34-.05v-29a12.52,12.52,0,0,1-6.82.22Z"/><path class="cls-2" d="M256.49,94.76,281.2,109a13,13,0,0,1,3.48-5.85L259.9,88.86Q258.12,91.76,256.49,94.76Z"/><polygon class="cls-4" points="294.04 112.54 294.04 193.75 364.37 234.35 434.69 193.75 434.69 112.54 364.67 152.97 294.04 112.54"/><path class="cls-2" d="M364.37,237.76a3.38,3.38,0,0,1-1.71-.46l-70.32-40.6a3.4,3.4,0,0,1-1.71-2.95V112.54a3.41,3.41,0,0,1,5.1-3L364.66,149,433,109.59a3.41,3.41,0,0,1,5.11,3v81.21a3.39,3.39,0,0,1-1.7,2.95l-70.33,40.6A3.37,3.37,0,0,1,364.37,237.76Zm-66.92-46,66.92,38.63,66.92-38.63V118.44l-64.92,37.48a3.41,3.41,0,0,1-3.4,0l-65.52-37.51Z"/><path class="cls-4" d="M353.71,93.07a26.14,26.14,0,0,0,10.81,21.13,26,26,0,0,0,0-42.26A26.14,26.14,0,0,0,353.71,93.07Z"/><path class="cls-4" d="M373.18,109.11A29.18,29.18,0,0,0,365,134.34,29.1,29.1,0,0,0,398.41,101,29.16,29.16,0,0,0,373.18,109.11Z"/><path class="cls-4" d="M355.87,109.11A29.18,29.18,0,0,1,364,134.34,29.09,29.09,0,0,1,330.64,101,29.16,29.16,0,0,1,355.87,109.11Z"/><path class="cls-4" d="M382.42,132.64a29.15,29.15,0,0,0-17.89,19.56,29.09,29.09,0,0,0,44.22-16.49A29.16,29.16,0,0,0,382.42,132.64Z"/><path class="cls-4" d="M346.64,132.64a29.19,29.19,0,0,1,17.89,19.56,29.1,29.1,0,0,1-44.23-16.49A29.18,29.18,0,0,1,346.64,132.64Z"/><path class="cls-4" d="M382.42,158.94a29.18,29.18,0,0,0-17.9,19.56A29.1,29.1,0,0,0,408.75,162,29.16,29.16,0,0,0,382.42,158.94Z"/><path class="cls-4" d="M346.63,158.94a29.15,29.15,0,0,1,17.89,19.56A29.09,29.09,0,0,1,320.3,162,29.16,29.16,0,0,1,346.63,158.94Z"/><path class="cls-2" d="M410.63,159.16a33.34,33.34,0,0,0-11.09-4.71A33,33,0,0,0,412,136.63a3.41,3.41,0,0,0-1.41-3.77,32.76,32.76,0,0,0-16.84-5.45,32.82,32.82,0,0,0,8-27,3.42,3.42,0,0,0-2.85-2.85,33,33,0,0,0-21.46,4,29.35,29.35,0,0,0-10.93-32.4,3.39,3.39,0,0,0-4,0,29.36,29.36,0,0,0-10.94,32.41,33.09,33.09,0,0,0-21.47-4,3.42,3.42,0,0,0-2.84,2.85,32.85,32.85,0,0,0,8,27,32.73,32.73,0,0,0-16.83,5.45,3.41,3.41,0,0,0-1.4,3.77,33,33,0,0,0,12.48,17.82,33.38,33.38,0,0,0-11.08,4.71,3.41,3.41,0,0,0-1.41,3.77,32.83,32.83,0,0,0,20,21.83,32.06,32.06,0,0,0,24.12-.59v50.18h6.82v-50.2a33,33,0,0,0,12.84,2.64,32.11,32.11,0,0,0,11.27-2,32.79,32.79,0,0,0,20-21.83A3.41,3.41,0,0,0,410.63,159.16Zm-21-7.08a25.5,25.5,0,0,1-21-1.4,25.65,25.65,0,0,1,36-13.45A25.54,25.54,0,0,1,389.67,152.08Zm5.65-48a25.67,25.67,0,0,1-27.19,27.19,25.65,25.65,0,0,1,27.19-27.19ZM364.53,76.34a22.61,22.61,0,0,1,0,33.46,22.59,22.59,0,0,1,0-33.46Zm-30.8,27.72a25.65,25.65,0,0,1,27.19,27.19,25.65,25.65,0,0,1-27.19-27.19Zm-9.33,33.17a25.65,25.65,0,0,1,36,13.45,25.65,25.65,0,0,1-36-13.45Zm15,41.15a25.5,25.5,0,0,1-15-14.85,25.66,25.66,0,0,1,36,13.45A25.6,25.6,0,0,1,339.38,178.38Zm16-18.62a33,33,0,0,0,5.75-1.88V165A31.87,31.87,0,0,0,355.37,159.76Zm12.57-1.91a33.13,33.13,0,0,0,5.79,1.87,31.64,31.64,0,0,0-5.79,5.29Zm21.73,20.53a25.53,25.53,0,0,1-21-1.4,25.64,25.64,0,0,1,36-13.45A25.5,25.5,0,0,1,389.67,178.38Z"/></svg>